<svg width="96" height="91" viewBox="0 0 96 91" fill="none" xmlns="http://www.w3.org/2000/svg">
<path fill-rule="evenodd" clip-rule="evenodd" d="M44.133 0.0440879C33.9781 1.08066 25.5236 4.35106 18.183 10.0817C14.1464 13.2333 10.2369 17.6072 7.23948 22.3256C3.00069 28.9982 0.198461 38.0994 0.186217 45.2336C0.182562 47.2802 0.188775 47.31 0.716728 47.8383C1.28854 48.4102 1.87607 48.5091 2.63848 48.1616C3.5089 47.7648 3.70408 47.1969 3.85064 44.632C4.27168 37.2603 6.70111 30.0412 10.9289 23.5989C12.7246 20.8624 13.9117 19.408 16.5029 16.7695C21.7016 11.4755 27.4194 7.97661 34.482 5.76746C39.1553 4.30554 43.1301 3.69925 47.9706 3.70985C54.7366 3.72465 60.8482 5.18803 67.1197 8.29483C69.8716 9.65823 73.3681 11.8862 75.4858 13.626C77.3069 15.1221 81.0181 18.8467 82.2827 20.4473C85.0591 23.9616 87.8728 28.9779 89.1804 32.7444C90.5969 36.8251 91.7356 42.47 91.7374 45.4204C91.7385 47.1643 92.0848 47.9322 92.9921 48.2025C93.8156 48.4478 94.5171 48.2155 94.9506 47.5538C95.4352 46.8141 95.2203 40.9849 94.6036 38.1366C92.4782 28.3201 88.0256 20.251 80.9347 13.3653C73.6744 6.31491 64.2979 1.71968 54.2754 0.30017C52.86 0.0996549 45.4268 -0.0878831 44.133 0.0440879ZM35.1304 14.5103C31.8747 15.8523 29.8384 21.6056 30.7794 26.8039C31.48 30.6747 33.8818 34.2297 36.6804 35.5381C38.814 36.5357 41.411 36.0842 43.2861 34.3898C45.6602 32.2445 46.7393 28.06 45.9701 23.9828C45.5726 21.8762 45.0253 20.5528 43.7731 18.6705C41.8951 15.8472 39.7074 14.375 37.2089 14.2527C36.2687 14.2068 35.6939 14.2779 35.1304 14.5103ZM56.5824 14.4909C53.8037 15.3443 51.1599 18.5074 49.8814 22.5084C49.2535 24.4734 49.1654 28.0715 49.6978 30.0125C50.9415 34.5472 54.5011 36.9857 58.0979 35.7675C60.1263 35.0804 61.6859 33.7292 62.996 31.5239C65.3229 27.6065 65.5939 22.018 63.646 18.1216C62.0004 14.8298 59.5609 13.5759 56.5824 14.4909ZM20.4464 30.7118C18.4851 31.4128 17.2956 33.1535 16.7262 36.1561C16.0954 39.4824 16.684 42.7029 18.4837 45.7731C19.4259 47.3804 21.4253 49.2956 22.9306 50.0328C24.0954 50.6032 24.3485 50.6573 25.8545 50.6573C27.2456 50.6573 27.6602 50.5837 28.5093 50.1852C31.0264 49.0042 32.3459 46.5427 32.3459 43.0281C32.3459 36.615 27.3733 30.4314 22.2453 30.4676C21.6192 30.472 20.8097 30.5819 20.4464 30.7118ZM71.3621 30.7162C69.7695 31.2221 68.6016 31.9849 67.159 33.4613C65.4677 35.1922 64.2361 37.3321 63.574 39.6902C63.0137 41.6855 63.0071 44.6969 63.5594 46.2217C64.5461 48.945 66.4271 50.498 68.9884 50.7036C72.7278 51.0037 76.6731 47.6631 78.3249 42.7976C79.2748 39.9999 79.1191 35.9565 77.9658 33.4719C77.4487 32.3578 75.967 30.9759 74.9688 30.6769C74.0412 30.3989 72.3014 30.4179 71.3621 30.7162ZM45.6311 40.3475C42.8592 40.9999 40.7388 43.0213 38.7469 46.9103C38.3092 47.7648 37.7588 48.771 37.5238 49.1464C36.8133 50.281 34.8248 52.2675 32.5639 54.1018C28.6166 57.3036 27.2673 59.6594 27.4452 63.0385C27.6409 66.7606 30.3974 69.8049 34.2069 70.5062C36.1305 70.8604 38.0378 70.5133 41.4742 69.1839C45.0145 67.8143 45.9661 67.565 47.6539 67.565C49.3862 67.565 50.1925 67.771 53.123 68.962C55.8108 70.0542 58.1079 70.6705 59.4836 70.6683C61.856 70.6647 64.303 69.6023 65.8911 67.8867C68.0926 65.5083 68.6589 62.8292 67.6069 59.7709C66.9144 57.7577 65.4569 56.0528 62.3162 53.5834C59.2711 51.1891 58.4831 50.2346 56.4522 46.4813C54.0533 42.048 51.3863 40.1176 47.7259 40.1655C46.9558 40.1757 46.0132 40.2574 45.6311 40.3475ZM7.36265 45.8342C6.60024 46.9512 6.09129 48.4213 5.8455 50.2165C5.4917 52.8009 6.08946 55.5156 7.52347 57.8362L7.91564 58.4711L8.35186 56.849C9.31913 53.2516 9.54226 51.8455 9.44998 49.9262C9.36025 48.0552 8.88602 46.3268 8.22064 45.4443L7.90998 45.0323L7.36265 45.8342ZM87.1336 45.592C86.244 47.1157 85.7905 49.9779 86.0883 52.1896C86.1916 52.9553 86.5182 54.5194 86.8142 55.6651C87.1103 56.8108 87.3524 57.9008 87.3524 58.087C87.3524 58.6941 87.6561 58.446 88.2252 57.3747C89.3116 55.3288 89.6362 53.9939 89.6358 51.5713C89.6354 49.1702 89.397 48.1572 88.4257 46.429C87.6854 45.1118 87.4884 44.9842 87.1336 45.592ZM11.3564 54.375C9.62486 58.1324 10.3644 62.6715 13.235 65.9042L14.0192 66.7874L14.1824 64.0232C14.417 60.0436 14.3605 58.5438 13.9146 56.9218C13.4419 55.2019 12.4854 53.125 12.1663 53.125C12.0377 53.125 11.6733 53.6874 11.3564 54.375ZM82.3618 54.5415C81.1069 57.2254 80.9634 58.55 81.2786 64.5463L81.4132 67.1024L82.3775 65.8258C84.9663 62.3989 85.7377 58.8653 84.6114 55.5927C84.2234 54.465 83.4436 53.125 83.1756 53.125C83.0922 53.125 82.726 53.7625 82.3618 54.5415ZM2.30319e-08 55.981C0.000182769 56.4414 0.86201 58.2994 1.56832 59.3623C2.7315 61.1127 3.91241 61.995 8.08468 64.231L9.49932 64.9892L8.93262 63.8552C7.25758 60.5027 4.9345 57.9269 2.50197 56.7244C1.08715 56.025 -0.000182723 55.7019 2.30319e-08 55.981ZM94.0851 56.3008C90.9424 57.5937 89.0203 59.5111 86.7797 63.5881C86.3912 64.2953 86.0732 64.8971 86.0732 64.9256C86.0732 65.0745 91.1599 62.1608 91.9739 61.5455C93.4528 60.4276 94.8644 58.3448 95.3578 56.5522C95.5851 55.7265 95.5147 55.7126 94.0851 56.3008ZM16.593 61.3911C16.4261 61.6837 16.3561 62.6484 16.3576 64.6404C16.3598 67.4586 16.3631 67.4813 16.9853 68.9302C17.8064 70.8423 19.6662 72.7641 21.9118 74.0213C22.7564 74.4942 23.4724 74.8561 23.503 74.8256C23.6192 74.7093 23.0194 70.9823 22.6543 69.552C21.831 66.3268 19.8261 63.1197 17.6672 61.5738L16.8305 60.975L16.593 61.3911ZM77.5009 61.8992C74.5593 64.3478 72.8097 67.9474 72.149 72.9093C72.0323 73.7877 71.9871 74.5573 72.0491 74.619C72.2881 74.8581 74.8542 73.2653 76.0927 72.1092C78.3266 70.024 79.2807 67.8836 79.3001 64.9146C79.3103 63.3209 79.0504 61.3816 78.7918 61.1229C78.6966 61.0277 78.161 61.3497 77.5009 61.8992ZM4.11361 66.312C4.42592 67.3447 5.46648 68.8536 6.74881 70.1335C9.10185 72.4819 11.6131 73.5236 17.0866 74.4216L17.8175 74.5416L17.0864 74.0096C16.6842 73.7172 15.61 72.6835 14.6992 71.7128C11.2957 68.0858 8.74841 66.6202 4.77844 66.0047C4.00707 65.8852 3.98733 65.8943 4.11361 66.312ZM90.0265 66.2038C88.234 66.56 87.1011 66.9567 85.4336 67.8118C84.1916 68.4488 83.5251 69.0002 81.0045 71.4779C79.3726 73.0818 78.057 74.4136 78.081 74.4375C78.1816 74.5383 81.8731 73.7941 82.9665 73.4529C86.5993 72.3185 89.0333 70.5241 90.5806 67.8392C91.2518 66.6745 91.5846 65.9152 91.4147 65.9371C91.3414 65.9466 90.7168 66.0665 90.0265 66.2038ZM9.69924 76.4575C11.1727 78.0684 12.5038 79.0847 14.4367 80.0748C17.4447 81.6157 20.1929 81.9429 26.7242 81.5377C33.6733 81.1065 37.392 81.6651 41.4832 83.7543C43.311 84.6878 44.1693 85.3308 45.9805 87.1238L47.6499 88.7765L49.5465 86.8988C51.6917 84.7746 53.1992 83.8192 55.966 82.8301C59.6329 81.5192 62.9218 81.1922 68.9181 81.5422C76.3186 81.9742 79.1124 81.4783 82.7099 79.0933C84.234 78.083 86.56 75.9731 86.1497 75.9731C86.048 75.9731 85.2283 76.1329 84.3285 76.3281C79.6654 77.34 75.2398 77.529 69.1692 76.9757C61.9171 76.3147 57.3181 77.1835 53.1789 79.9962C51.8808 80.8784 49.8597 82.7636 48.7055 84.1689L47.7957 85.2765L45.8844 83.2555C43.5829 80.8217 42.1156 79.6773 39.9298 78.6115C36.6386 77.0064 33.0368 76.4833 27.9148 76.8666C21.3884 77.3548 20.1317 77.4025 17.8115 77.2495C15.2757 77.0823 12.4459 76.6774 10.7555 76.24C9.32041 75.8688 9.1859 75.8964 9.69924 76.4575ZM26.6807 85.4705C25.9269 85.5489 24.4922 85.6236 23.4924 85.6368L21.6746 85.6607L22.3959 86.1875C22.7926 86.4773 23.8463 87.1309 24.7376 87.6401C28.5195 89.8016 32.3473 90.5689 36.7365 90.0458C38.6192 89.8215 42.9451 88.9198 42.9451 88.7518C42.9451 88.5685 40.6659 87.4107 39.0208 86.7584C36.6541 85.8196 34.6633 85.475 31.158 85.3972C29.4493 85.3591 27.4346 85.3922 26.6807 85.4705ZM61.037 85.5631C58.6381 85.9627 56.3735 86.6809 54.3211 87.6929C53.2907 88.2009 52.4479 88.6826 52.4479 88.763C52.4479 88.8436 52.674 88.9514 52.9505 89.003C53.227 89.0543 54.481 89.3093 55.7373 89.5698C62.2466 90.9186 67.4647 90.0237 72.6768 86.6644C73.2994 86.2632 73.8135 85.885 73.819 85.8242C73.8305 85.6988 70.5259 85.5207 65.7884 85.3915C63.5163 85.3295 62.1406 85.3793 61.037 85.5631Z" fill="#F9F9F9"/>
</svg>
