<svg width="501" height="560" viewBox="0 0 501 560" fill="none" xmlns="http://www.w3.org/2000/svg">
<path fill-rule="evenodd" clip-rule="evenodd" d="M235.593 0.184894C193.014 4.53205 157.565 18.2473 126.786 42.2804C109.86 55.4975 93.4677 73.8404 80.8997 93.6284C63.1265 121.612 51.3768 159.78 51.3255 189.699C51.3102 198.282 51.3362 198.407 53.5499 200.622C55.9475 203.021 58.411 203.436 61.6078 201.978C65.2574 200.314 66.0758 197.932 66.6903 187.176C68.4558 156.261 78.6423 125.986 96.3695 98.9682C103.899 87.4921 108.876 81.3926 119.741 70.3273C141.539 48.1255 165.514 33.452 195.127 24.1874C214.722 18.0564 231.388 15.5138 251.685 15.5582C280.054 15.6203 305.68 21.7574 331.976 34.7866C343.515 40.5043 358.176 49.8479 367.055 57.144C374.691 63.4183 390.252 79.0385 395.554 85.7512C407.196 100.489 418.994 121.526 424.476 137.322C430.416 154.436 435.19 178.109 435.198 190.482C435.202 197.796 436.654 201.016 440.459 202.15C443.912 203.179 446.853 202.204 448.671 199.43C450.703 196.327 449.802 171.881 447.216 159.936C438.304 118.768 419.634 84.9279 389.902 56.0509C359.46 26.4832 320.145 7.21194 278.12 1.25884C272.186 0.417929 241.018 -0.368561 235.593 0.184894ZM197.846 60.8526C184.195 66.4807 175.656 90.6089 179.602 112.409C182.54 128.642 192.611 143.551 204.345 149.038C213.291 153.222 224.18 151.329 232.043 144.223C241.997 135.226 246.522 117.677 243.296 100.578C241.63 91.7434 239.335 86.1935 234.085 78.2995C226.21 66.4592 217.037 60.2854 206.561 59.7726C202.619 59.5801 200.209 59.8783 197.846 60.8526ZM287.793 60.7714C276.143 64.3504 265.057 77.6157 259.697 94.3949C257.064 102.635 256.694 117.725 258.926 125.865C264.142 144.883 279.067 155.109 294.148 150C302.653 147.119 309.192 141.452 314.686 132.204C324.442 115.775 325.579 92.3383 317.411 75.9975C310.511 62.1926 300.283 56.934 287.793 60.7714ZM136.276 128.798C128.052 131.738 123.065 139.038 120.677 151.63C118.032 165.58 120.5 179.086 128.046 191.962C131.997 198.702 140.381 206.734 146.692 209.826C151.576 212.218 152.638 212.445 158.952 212.445C164.785 212.445 166.524 212.136 170.084 210.465C180.638 205.512 186.17 195.189 186.17 180.45C186.17 153.555 165.321 127.622 143.819 127.774C141.194 127.792 137.799 128.253 136.276 128.798ZM349.765 128.816C343.087 130.938 338.19 134.137 332.141 140.329C325.049 147.588 319.886 156.562 317.109 166.451C314.76 174.819 314.732 187.448 317.048 193.843C321.185 205.264 329.072 211.777 339.812 212.639C355.491 213.898 372.033 199.888 378.96 179.483C382.943 167.75 382.29 150.793 377.454 140.373C375.285 135.701 369.073 129.906 364.887 128.652C360.998 127.486 353.703 127.565 349.765 128.816ZM241.875 169.208C230.253 171.944 221.362 180.421 213.01 196.73C211.175 200.314 208.867 204.534 207.881 206.109C204.902 210.867 196.564 219.198 187.084 226.89C170.533 240.318 164.876 250.197 165.622 264.369C166.442 279.978 178 292.745 193.974 295.686C202.039 297.172 210.037 295.716 224.445 290.141C239.29 284.397 243.28 283.352 250.357 283.352C257.62 283.352 261.001 284.216 273.288 289.21C284.558 293.791 294.19 296.375 299.958 296.366C309.906 296.351 320.166 291.896 326.825 284.701C336.056 274.726 338.43 263.491 334.019 250.665C331.116 242.222 325.004 235.072 311.835 224.716C299.067 214.675 295.763 210.672 287.248 194.931C277.189 176.339 266.007 168.244 250.659 168.444C247.43 168.487 243.477 168.83 241.875 169.208ZM81.4161 192.218C78.2193 196.902 76.0853 203.068 75.0547 210.596C73.5713 221.434 76.0777 232.819 82.0904 242.552L83.7348 245.214L85.5638 238.411C89.6196 223.325 90.5552 217.428 90.1682 209.379C89.792 201.532 87.8036 194.284 85.0137 190.583L83.7111 188.855L81.4161 192.218ZM415.894 191.202C412.164 197.592 410.262 209.596 411.511 218.871C411.944 222.082 413.314 228.642 414.555 233.446C415.796 238.251 416.812 242.822 416.812 243.603C416.812 246.149 418.085 245.109 420.471 240.616C425.027 232.036 426.387 226.438 426.386 216.278C426.384 206.208 425.384 201.96 421.312 194.712C418.208 189.188 417.382 188.653 415.894 191.202ZM98.1618 228.036C90.9016 243.793 94.0026 262.829 106.039 276.387L109.327 280.091L110.011 268.498C110.995 251.809 110.758 245.519 108.889 238.716C106.906 231.504 102.896 222.793 101.558 222.793C101.018 222.793 99.4905 225.152 98.1618 228.036ZM395.886 228.734C390.624 239.99 390.023 245.545 391.344 270.692L391.908 281.411L395.952 276.058C406.807 261.686 410.041 246.867 405.319 233.143C403.692 228.413 400.422 222.793 399.298 222.793C398.949 222.793 397.413 225.467 395.886 228.734ZM50.5447 234.771C50.5454 236.702 54.1591 244.494 57.1206 248.952C61.9978 256.292 66.9493 259.992 84.4436 269.37L90.3751 272.549L87.999 267.794C80.9755 253.734 71.2349 242.932 61.0354 237.889C55.1031 234.956 50.5439 233.6 50.5447 234.771ZM445.042 236.112C431.865 241.534 423.805 249.576 414.41 266.674C412.781 269.639 411.448 272.163 411.448 272.283C411.448 272.907 432.776 260.688 436.189 258.107C442.391 253.419 448.309 244.684 450.378 237.166C451.331 233.704 451.036 233.646 445.042 236.112ZM120.119 257.46C119.419 258.687 119.126 262.733 119.132 271.087C119.141 282.905 119.155 283.001 121.764 289.077C125.207 297.096 133.005 305.156 142.42 310.428C145.962 312.411 148.964 313.929 149.092 313.801C149.579 313.313 147.065 297.683 145.534 291.685C142.082 278.159 133.675 264.709 124.623 258.226L121.115 255.715L120.119 257.46ZM375.505 259.591C363.17 269.859 355.834 284.955 353.064 305.764C352.575 309.448 352.385 312.676 352.645 312.935C353.647 313.937 364.407 307.258 369.6 302.409C378.966 293.664 382.967 284.688 383.048 272.237C383.091 265.553 382.002 257.42 380.917 256.335C380.518 255.936 378.272 257.286 375.505 259.591ZM67.793 278.097C69.1025 282.428 73.4655 288.756 78.8423 294.123C88.7085 303.972 99.2383 308.341 122.188 312.107L125.253 312.61L122.188 310.379C120.501 309.152 115.997 304.818 112.178 300.746C97.9074 285.536 87.2266 279.389 70.5806 276.808C67.3462 276.307 67.2635 276.345 67.793 278.097ZM428.024 277.643C420.508 279.137 415.758 280.8 408.766 284.386C403.559 287.058 400.764 289.371 390.195 299.761C383.352 306.488 377.836 312.073 377.937 312.173C378.359 312.596 393.837 309.475 398.422 308.044C413.654 303.287 423.86 295.761 430.347 284.501C433.162 279.617 434.557 276.433 433.845 276.525C433.537 276.565 430.918 277.067 428.024 277.643ZM91.2134 320.645C97.3917 327.4 102.973 331.662 111.078 335.815C123.69 342.277 135.213 343.649 162.599 341.95C191.736 340.141 207.329 342.484 224.483 351.246C232.147 355.161 235.746 357.857 243.34 365.376L250.34 372.308L258.292 364.433C267.287 355.525 273.608 351.518 285.209 347.37C300.584 341.872 314.375 340.501 339.517 341.969C370.547 343.78 382.261 341.701 397.346 331.698C403.736 327.462 413.489 318.613 411.769 318.613C411.342 318.613 407.905 319.283 404.132 320.102C384.58 324.346 366.024 325.138 340.57 322.818C310.162 320.046 290.878 323.689 273.523 335.485C268.08 339.185 259.605 347.091 254.766 352.984L250.951 357.63L242.937 349.154C233.287 338.947 227.135 334.148 217.97 329.678C204.169 322.947 189.067 320.753 167.591 322.36C140.226 324.408 134.956 324.608 125.228 323.966C114.596 323.265 102.73 321.567 95.6423 319.733C89.625 318.176 89.061 318.291 91.2134 320.645ZM162.416 358.443C159.256 358.772 153.24 359.085 149.048 359.141L141.426 359.241L144.45 361.45C146.114 362.665 150.532 365.406 154.269 367.542C170.126 376.607 186.176 379.825 204.58 377.631C212.474 376.69 230.613 372.909 230.613 372.204C230.613 371.435 221.056 366.58 214.158 363.844C204.235 359.907 195.887 358.462 181.19 358.136C174.025 357.976 165.577 358.115 162.416 358.443ZM306.472 358.832C296.413 360.507 286.918 363.519 278.312 367.763C273.992 369.894 270.458 371.914 270.458 372.251C270.458 372.589 271.406 373.041 272.565 373.257C273.724 373.473 278.982 374.542 284.25 375.635C311.543 381.291 333.423 377.538 355.277 363.45C357.888 361.768 360.043 360.181 360.066 359.926C360.114 359.4 346.258 358.654 326.394 358.112C316.867 357.852 311.099 358.06 306.472 358.832Z" fill="#F9F9F9"/>
<path d="M3.36107 420.93C4.9164 420.992 7.00054 421.054 9.61349 421.116C12.2887 421.179 14.9327 421.21 17.5457 421.21C20.5319 421.21 23.4248 421.179 26.2244 421.116C29.024 421.054 31.0148 421.023 32.1969 421.023C40.8445 421.023 47.3146 422.734 51.6073 426.156C55.9 429.577 58.0464 433.994 58.0464 439.407C58.0464 441.647 57.6109 444.011 56.7399 446.499C55.8689 448.926 54.3758 451.196 52.2606 453.312C50.2075 455.365 47.3769 457.044 43.7685 458.351C40.1601 459.657 35.6186 460.311 30.1438 460.311H20.6252V458.444H29.2106C32.8812 458.444 35.6497 457.604 37.5161 455.925C39.4447 454.245 40.7512 452.036 41.4355 449.299C42.1821 446.561 42.5553 443.606 42.5553 440.433C42.5553 434.523 41.6844 430.106 39.9424 427.182C38.2004 424.258 35.2142 422.796 30.9837 422.796C28.5574 422.796 26.9709 423.325 26.2244 424.382C25.54 425.44 25.1979 427.586 25.1979 430.822V476.548C25.1979 478.975 25.4467 480.779 25.9444 481.961C26.4421 483.143 27.4064 483.92 28.8373 484.294C30.2682 484.667 32.3835 484.885 35.1831 484.947V487C33.2545 486.938 30.7659 486.876 27.7175 486.813C24.6691 486.751 21.4651 486.72 18.1056 486.72C15.4304 486.72 12.8175 486.751 10.2667 486.813C7.71599 486.876 5.4141 486.938 3.36107 487V485.134C5.35189 485.009 6.84501 484.76 7.84042 484.387C8.83583 484.014 9.48906 483.267 9.80013 482.147C10.1734 481.028 10.36 479.348 10.36 477.108V430.822C10.36 428.52 10.1734 426.84 9.80013 425.782C9.48906 424.662 8.80472 423.916 7.7471 423.543C6.75169 423.107 5.28968 422.858 3.36107 422.796V420.93ZM85.2943 420.743L107.971 479.161C108.842 481.401 109.806 482.956 110.864 483.827C111.984 484.636 112.979 485.071 113.85 485.134V487C111.984 486.876 109.775 486.813 107.224 486.813C104.736 486.751 102.216 486.72 99.6655 486.72C96.8037 486.72 94.0974 486.751 91.5467 486.813C88.996 486.813 86.974 486.876 85.4809 487V485.134C88.6538 485.009 90.6446 484.48 91.4534 483.547C92.3244 482.552 92.1377 480.468 90.8935 477.295L75.0291 433.901L76.7089 431.475L62.5243 468.429C61.1556 471.851 60.3157 474.651 60.0047 476.828C59.7558 479.006 59.9113 480.685 60.4713 481.867C61.0934 483.049 62.0577 483.889 63.3642 484.387C64.7328 484.823 66.3504 485.071 68.2168 485.134V487C66.1638 486.876 64.204 486.813 62.3376 486.813C60.4713 486.751 58.5738 486.72 56.6451 486.72C55.2765 486.72 53.97 486.751 52.7257 486.813C51.5437 486.813 50.486 486.876 49.5528 487V485.134C50.8593 484.885 52.1969 484.045 53.5656 482.614C54.9343 481.183 56.2719 478.757 57.5783 475.335L78.8552 420.743C79.8506 420.805 80.9083 420.836 82.0281 420.836C83.2101 420.836 84.2989 420.805 85.2943 420.743ZM91.8267 460.124V461.99H64.0174L64.9506 460.124H91.8267ZM194.069 420.93V422.796C192.7 423.294 191.269 424.382 189.776 426.062C188.283 427.68 186.976 430.293 185.856 433.901L169.432 487.187C168.934 487.124 168.406 487.093 167.846 487.093C167.286 487.093 166.726 487.093 166.166 487.093C165.606 487.093 165.046 487.093 164.486 487.093C163.926 487.093 163.398 487.124 162.9 487.187L143.303 427.835C142.681 425.907 141.903 424.6 140.97 423.916C140.099 423.232 139.165 422.858 138.17 422.796V420.93C139.912 420.992 141.965 421.054 144.329 421.116C146.755 421.179 149.151 421.21 151.515 421.21C154.252 421.21 156.803 421.179 159.167 421.116C161.593 421.054 163.522 420.992 164.953 420.93V422.796C163.086 422.858 161.593 423.076 160.473 423.449C159.416 423.823 158.794 424.538 158.607 425.596C158.483 426.653 158.794 428.333 159.54 430.635L172.792 471.136L170.645 474.962L181.19 441.46C182.684 436.732 183.399 433.03 183.337 430.355C183.275 427.68 182.559 425.782 181.19 424.662C179.822 423.48 177.862 422.858 175.311 422.796V420.93C177.427 420.992 179.417 421.054 181.284 421.116C183.15 421.179 185.017 421.21 186.883 421.21C188.314 421.21 189.62 421.179 190.802 421.116C192.047 421.054 193.135 420.992 194.069 420.93ZM127.438 420.93V422.796C126.194 422.983 125.323 423.449 124.825 424.196C124.328 424.88 124.11 425.813 124.172 426.995C124.297 428.115 124.577 429.328 125.012 430.635L139.29 472.069L136.77 475.428L148.715 440.527L150.022 443.046L135.37 487.187C134.873 487.124 134.344 487.093 133.784 487.093C133.224 487.093 132.664 487.093 132.104 487.093C131.544 487.093 130.984 487.093 130.425 487.093C129.865 487.093 129.336 487.124 128.838 487.187L107.935 428.769C107.126 426.467 106.161 424.911 105.042 424.103C103.984 423.294 102.989 422.858 102.055 422.796V420.93C103.922 420.992 106.13 421.054 108.681 421.116C111.232 421.179 113.658 421.21 115.96 421.21C118.449 421.21 120.657 421.179 122.586 421.116C124.577 421.054 126.194 420.992 127.438 420.93ZM237.322 420.743C239.749 420.743 241.708 420.93 243.201 421.303C244.694 421.614 245.97 422.081 247.027 422.703C248.023 423.138 248.925 423.698 249.734 424.382C250.605 425.067 251.32 425.907 251.88 426.902C252.44 427.898 252.72 429.017 252.72 430.262C252.72 432.128 252.005 433.621 250.574 434.741C249.143 435.861 247.463 436.421 245.534 436.421C243.668 436.421 242.05 435.954 240.682 435.021C239.375 434.088 238.722 432.626 238.722 430.635C238.722 429.08 239.282 427.68 240.402 426.436C241.522 425.129 242.953 424.32 244.694 424.009C244.259 423.512 243.45 423.107 242.268 422.796C241.148 422.485 239.904 422.329 238.535 422.329C235.3 422.329 232.532 423.356 230.23 425.409C227.99 427.4 226.87 430.448 226.87 434.554C226.87 435.985 227.119 437.509 227.617 439.127C228.115 440.745 229.079 442.393 230.51 444.073C231.568 443.824 232.532 443.637 233.403 443.513C234.336 443.389 235.114 443.326 235.736 443.326C236.856 443.326 237.696 443.575 238.255 444.073C238.878 444.508 239.189 445.099 239.189 445.846C239.189 446.406 238.94 446.873 238.442 447.246C237.944 447.619 237.322 447.806 236.576 447.806C235.518 447.806 234.429 447.526 233.309 446.966C232.19 446.344 231.288 445.815 230.603 445.379C227.679 446.873 225.284 448.801 223.418 451.165C221.613 453.467 220.711 456.578 220.711 460.497C220.711 464.603 221.831 467.994 224.071 470.669C226.311 473.282 229.452 475.273 233.496 476.642C237.602 477.948 242.424 478.601 247.961 478.601C251.071 478.601 254.151 478.259 257.199 477.575C260.248 476.89 262.985 475.864 265.411 474.495C267.9 473.126 269.891 471.447 271.384 469.456C272.877 467.403 273.624 465.039 273.624 462.364C273.624 461.368 273.468 460.124 273.157 458.631C272.908 457.075 272.255 455.551 271.197 454.058C270.14 452.503 268.398 451.227 265.971 450.232L266.625 449.392C269.984 450.45 272.535 452.441 274.277 455.365C276.019 458.289 276.89 461.648 276.89 465.443C276.89 469.798 275.552 473.717 272.877 477.201C270.202 480.623 266.438 483.329 261.585 485.32C256.795 487.311 251.165 488.306 244.694 488.306C239.531 488.306 234.834 487.778 230.603 486.72C226.435 485.662 222.827 484.138 219.778 482.147C216.792 480.094 214.459 477.637 212.779 474.775C211.162 471.913 210.353 468.678 210.353 465.07C210.353 461.586 211.068 458.631 212.499 456.205C213.992 453.716 215.797 451.694 217.912 450.139C220.027 448.521 222.142 447.277 224.257 446.406C226.373 445.535 228.052 444.944 229.297 444.633C227.368 443.824 225.595 442.891 223.978 441.833C222.422 440.713 221.147 439.407 220.151 437.914C219.218 436.421 218.752 434.741 218.752 432.875C218.752 430.884 219.28 429.142 220.338 427.649C221.396 426.093 222.795 424.818 224.537 423.823C226.342 422.827 228.332 422.081 230.51 421.583C232.75 421.023 235.02 420.743 237.322 420.743ZM273.997 419.623C278.414 419.623 281.991 420.774 284.729 423.076C287.466 425.378 288.835 428.613 288.835 432.781C288.835 435.954 288.057 438.629 286.502 440.807C285.009 442.984 282.831 444.757 279.969 446.126C277.17 447.495 273.81 448.583 269.891 449.392C269.02 449.703 267.931 450.077 266.625 450.512C265.318 450.885 263.981 451.259 262.612 451.632C261.243 452.005 259.906 452.378 258.599 452.752C257.355 453.125 256.266 453.436 255.333 453.685C250.48 454.742 246.748 455.956 244.135 457.324C241.522 458.631 240.215 460.435 240.215 462.737C240.215 464.292 240.713 465.63 241.708 466.75C242.766 467.869 244.072 468.74 245.628 469.363C247.183 469.985 248.738 470.296 250.294 470.296C250.729 470.296 251.196 470.265 251.693 470.202C252.191 470.078 252.658 469.954 253.093 469.829C253.529 469.643 253.84 469.487 254.026 469.363C252.471 468.865 251.289 468.087 250.48 467.03C249.734 465.91 249.36 464.634 249.36 463.203C249.36 461.213 250.076 459.688 251.507 458.631C252.938 457.573 254.711 457.044 256.826 457.044C259.066 457.044 260.808 457.635 262.052 458.817C263.358 460 264.012 461.524 264.012 463.39C264.012 465.319 263.421 466.936 262.239 468.243C261.057 469.487 259.47 470.42 257.479 471.042C255.488 471.602 253.249 471.882 250.76 471.882C248.334 471.882 246.032 471.447 243.855 470.576C241.739 469.705 240.029 468.398 238.722 466.656C237.478 464.852 236.856 462.612 236.856 459.937C236.856 456.64 237.696 453.903 239.375 451.725C241.055 449.485 243.45 447.65 246.561 446.219C249.734 444.726 253.467 443.575 257.759 442.766C259.066 442.455 260.497 442.113 262.052 441.74C263.669 441.304 265.318 440.869 266.998 440.433C268.678 439.998 270.233 439.531 271.664 439.034C276.143 437.914 279.596 436.67 282.022 435.301C284.511 433.932 285.755 432.097 285.755 429.795C285.755 428.115 285.226 426.653 284.169 425.409C283.173 424.103 281.867 423.107 280.249 422.423C278.632 421.676 276.952 421.303 275.21 421.303C274.65 421.303 274.121 421.334 273.624 421.396C273.188 421.458 272.815 421.583 272.504 421.77C274.059 422.329 275.21 423.169 275.957 424.289C276.703 425.409 277.076 426.529 277.076 427.649C277.076 429.577 276.361 431.07 274.93 432.128C273.499 433.123 271.726 433.621 269.611 433.621C267.496 433.621 265.754 433.092 264.385 432.035C263.016 430.915 262.332 429.391 262.332 427.462C262.332 425.782 262.799 424.382 263.732 423.263C264.727 422.081 266.096 421.179 267.838 420.556C269.58 419.934 271.633 419.623 273.997 419.623ZM362.408 420.93C362.159 424.103 361.972 427.151 361.848 430.075C361.786 432.999 361.755 435.239 361.755 436.794C361.755 438.163 361.786 439.469 361.848 440.713C361.91 441.958 361.972 443.015 362.035 443.886H359.888C358.893 438.66 357.617 434.523 356.062 431.475C354.569 428.426 352.765 426.28 350.65 425.036C348.534 423.729 346.046 423.076 343.184 423.076H341.038V476.362C341.038 478.85 341.286 480.716 341.784 481.961C342.344 483.205 343.339 484.045 344.77 484.48C346.201 484.854 348.285 485.071 351.023 485.134V487C349.094 486.938 346.512 486.876 343.277 486.813C340.104 486.751 336.776 486.72 333.292 486.72C329.87 486.72 326.635 486.751 323.587 486.813C320.538 486.876 318.081 486.938 316.215 487V485.134C319.014 485.071 321.129 484.854 322.56 484.48C323.991 484.045 324.955 483.205 325.453 481.961C325.951 480.716 326.2 478.85 326.2 476.362V423.076H324.147C321.285 423.076 318.796 423.729 316.681 425.036C314.566 426.28 312.762 428.426 311.269 431.475C309.775 434.461 308.469 438.598 307.349 443.886H305.203C305.327 443.015 305.389 441.958 305.389 440.713C305.452 439.469 305.483 438.163 305.483 436.794C305.483 435.239 305.421 432.999 305.296 430.075C305.234 427.151 305.078 424.103 304.83 420.93C307.691 420.992 310.802 421.054 314.162 421.116C317.583 421.179 321.005 421.21 324.427 421.21C327.848 421.21 330.928 421.21 333.665 421.21C336.465 421.21 339.544 421.21 342.904 421.21C346.326 421.21 349.747 421.179 353.169 421.116C356.591 421.054 359.67 420.992 362.408 420.93ZM390.063 420.743L412.74 479.161C413.611 481.401 414.575 482.956 415.633 483.827C416.753 484.636 417.748 485.071 418.619 485.134V487C416.753 486.876 414.544 486.813 411.993 486.813C409.505 486.751 406.985 486.72 404.434 486.72C401.573 486.72 398.866 486.751 396.316 486.813C393.765 486.813 391.743 486.876 390.25 487V485.134C393.423 485.009 395.414 484.48 396.222 483.547C397.093 482.552 396.907 480.468 395.662 477.295L379.798 433.901L381.478 431.475L367.293 468.429C365.925 471.851 365.085 474.651 364.774 476.828C364.525 479.006 364.68 480.685 365.24 481.867C365.862 483.049 366.827 483.889 368.133 484.387C369.502 484.823 371.119 485.071 372.986 485.134V487C370.933 486.876 368.973 486.813 367.107 486.813C365.24 486.751 363.343 486.72 361.414 486.72C360.045 486.72 358.739 486.751 357.495 486.813C356.313 486.813 355.255 486.876 354.322 487V485.134C355.628 484.885 356.966 484.045 358.335 482.614C359.703 481.183 361.041 478.757 362.347 475.335L383.624 420.743C384.62 420.805 385.677 420.836 386.797 420.836C387.979 420.836 389.068 420.805 390.063 420.743ZM396.596 460.124V461.99H368.786L369.72 460.124H396.596ZM444.418 420.93V422.796C442.427 422.858 440.903 423.107 439.846 423.543C438.85 423.916 438.197 424.662 437.886 425.782C437.575 426.84 437.419 428.52 437.419 430.822V477.108C437.419 479.348 437.575 481.028 437.886 482.147C438.259 483.267 438.944 484.014 439.939 484.387C440.934 484.76 442.427 485.009 444.418 485.134V487C442.739 486.876 440.623 486.813 438.073 486.813C435.522 486.751 432.94 486.72 430.327 486.72C427.279 486.72 424.448 486.751 421.835 486.813C419.284 486.813 417.2 486.876 415.583 487V485.134C417.573 485.009 419.066 484.76 420.062 484.387C421.057 484.014 421.71 483.267 422.022 482.147C422.395 481.028 422.581 479.348 422.581 477.108V430.822C422.581 428.52 422.395 426.84 422.022 425.782C421.71 424.662 421.026 423.916 419.969 423.543C418.973 423.107 417.511 422.858 415.583 422.796V420.93C417.2 420.992 419.284 421.054 421.835 421.116C424.448 421.179 427.279 421.21 430.327 421.21C432.94 421.21 435.522 421.179 438.073 421.116C440.623 421.054 442.739 420.992 444.418 420.93ZM476.331 420.93V422.796C474.216 422.858 472.599 423.107 471.479 423.543C470.421 423.916 469.706 424.662 469.332 425.782C468.959 426.84 468.773 428.52 468.773 430.822V478.228C468.773 480.157 468.897 481.587 469.146 482.521C469.457 483.454 470.017 484.076 470.826 484.387C471.697 484.698 472.972 484.854 474.652 484.854H479.224C481.34 484.854 483.33 484.356 485.197 483.361C487.063 482.365 488.743 480.965 490.236 479.161C491.729 477.295 492.973 475.086 493.969 472.535C494.964 469.985 495.711 467.154 496.209 464.043H498.355C498.168 466.159 498.075 468.896 498.075 472.255C498.075 473.686 498.106 475.771 498.168 478.508C498.23 481.245 498.417 484.076 498.728 487C495.555 486.876 491.978 486.813 487.996 486.813C484.015 486.751 480.469 486.72 477.358 486.72C475.803 486.72 473.812 486.72 471.385 486.72C468.959 486.72 466.346 486.751 463.547 486.813C460.747 486.813 457.916 486.844 455.055 486.907C452.193 486.907 449.486 486.938 446.936 487V485.134C448.927 485.009 450.42 484.76 451.415 484.387C452.41 484.014 453.064 483.267 453.375 482.147C453.748 481.028 453.935 479.348 453.935 477.108V430.822C453.935 428.52 453.748 426.84 453.375 425.782C453.064 424.662 452.379 423.916 451.322 423.543C450.326 423.107 448.864 422.858 446.936 422.796V420.93C448.491 420.992 450.575 421.054 453.188 421.116C455.863 421.179 458.694 421.21 461.68 421.21C464.418 421.21 467.093 421.179 469.706 421.116C472.381 421.054 474.589 420.992 476.331 420.93Z" fill="#F9F9F9"/>
<path d="M95.8043 521.136V522.216C95.1203 522.324 94.4723 522.684 93.8603 523.296C93.2843 523.872 92.7443 524.88 92.2403 526.32L83.7083 549.216C83.4203 549.216 83.1143 549.216 82.7903 549.216C82.5023 549.216 82.2143 549.216 81.9263 549.216L72.0983 525.294C71.5223 523.89 70.9463 523.044 70.3703 522.756C69.8303 522.432 69.3623 522.27 68.9663 522.27V521.136C69.8303 521.208 70.7123 521.28 71.6123 521.352C72.5483 521.388 73.5743 521.406 74.6903 521.406C75.8063 521.406 76.9763 521.388 78.2003 521.352C79.4603 521.28 80.6303 521.208 81.7103 521.136V522.27C80.8463 522.27 80.0723 522.324 79.3883 522.432C78.7403 522.54 78.3083 522.864 78.0923 523.404C77.9123 523.908 78.0383 524.79 78.4703 526.05L85.1123 542.79L84.6803 543.222L90.2423 528.48C90.7823 527.04 90.9983 525.888 90.8903 525.024C90.7823 524.124 90.4043 523.458 89.7563 523.026C89.1083 522.558 88.1723 522.288 86.9483 522.216V521.136C87.5603 521.172 88.1183 521.208 88.6223 521.244C89.1623 521.244 89.6663 521.262 90.1343 521.298C90.6383 521.298 91.1603 521.298 91.7003 521.298C92.4923 521.298 93.2303 521.28 93.9143 521.244C94.6343 521.208 95.2643 521.172 95.8043 521.136ZM108.029 520.38C111.197 520.38 113.681 521.334 115.481 523.242C117.281 525.15 118.181 528.174 118.181 532.314H99.5506L99.4426 531.288H112.457C112.493 529.524 112.349 527.904 112.025 526.428C111.701 524.916 111.197 523.71 110.513 522.81C109.829 521.91 108.929 521.46 107.813 521.46C106.265 521.46 104.915 522.288 103.763 523.944C102.647 525.564 101.963 528.174 101.711 531.774L101.873 532.044C101.837 532.548 101.801 533.106 101.765 533.718C101.729 534.294 101.711 534.87 101.711 535.446C101.711 537.93 102.089 540.018 102.845 541.71C103.601 543.402 104.591 544.68 105.815 545.544C107.039 546.372 108.281 546.786 109.541 546.786C110.513 546.786 111.449 546.642 112.349 546.354C113.285 546.03 114.167 545.508 114.995 544.788C115.823 544.032 116.561 543.006 117.209 541.71L118.289 542.142C117.857 543.366 117.191 544.572 116.291 545.76C115.391 546.948 114.239 547.92 112.835 548.676C111.431 549.396 109.793 549.756 107.921 549.756C105.401 549.756 103.205 549.198 101.333 548.082C99.4606 546.93 98.0206 545.292 97.0126 543.168C96.0046 541.044 95.5006 538.524 95.5006 535.608C95.5006 532.404 96.0226 529.668 97.0666 527.4C98.1106 525.132 99.5686 523.404 101.441 522.216C103.349 520.992 105.545 520.38 108.029 520.38ZM129.19 512.226V521.19H136.642V522.27H129.19V543.492C129.19 544.968 129.46 546.012 130 546.624C130.54 547.236 131.314 547.542 132.322 547.542C133.258 547.542 134.086 547.164 134.806 546.408C135.562 545.652 136.21 544.374 136.75 542.574L137.776 542.952C137.344 544.86 136.57 546.48 135.454 547.812C134.374 549.108 132.772 549.756 130.648 549.756C129.424 549.756 128.398 549.594 127.57 549.27C126.742 548.982 126.022 548.55 125.41 547.974C124.618 547.146 124.078 546.156 123.79 545.004C123.502 543.852 123.358 542.322 123.358 540.414V522.27H118.39V521.19H123.358V513.306C124.474 513.27 125.518 513.18 126.49 513.036C127.462 512.856 128.362 512.586 129.19 512.226ZM149.957 520.38C153.125 520.38 155.609 521.334 157.409 523.242C159.209 525.15 160.109 528.174 160.109 532.314H141.479L141.371 531.288H154.385C154.421 529.524 154.277 527.904 153.953 526.428C153.629 524.916 153.125 523.71 152.441 522.81C151.757 521.91 150.857 521.46 149.741 521.46C148.193 521.46 146.843 522.288 145.691 523.944C144.575 525.564 143.891 528.174 143.639 531.774L143.801 532.044C143.765 532.548 143.729 533.106 143.693 533.718C143.657 534.294 143.639 534.87 143.639 535.446C143.639 537.93 144.017 540.018 144.773 541.71C145.529 543.402 146.519 544.68 147.743 545.544C148.967 546.372 150.209 546.786 151.469 546.786C152.441 546.786 153.377 546.642 154.277 546.354C155.213 546.03 156.095 545.508 156.923 544.788C157.751 544.032 158.489 543.006 159.137 541.71L160.217 542.142C159.785 543.366 159.119 544.572 158.219 545.76C157.319 546.948 156.167 547.92 154.763 548.676C153.359 549.396 151.721 549.756 149.849 549.756C147.329 549.756 145.133 549.198 143.261 548.082C141.389 546.93 139.949 545.292 138.941 543.168C137.933 541.044 137.429 538.524 137.429 535.608C137.429 532.404 137.951 529.668 138.995 527.4C140.039 525.132 141.497 523.404 143.369 522.216C145.277 520.992 147.473 520.38 149.957 520.38ZM178.951 520.38C179.995 520.38 180.877 520.596 181.597 521.028C182.353 521.46 182.911 522.018 183.271 522.702C183.667 523.35 183.865 524.088 183.865 524.916C183.865 525.96 183.541 526.86 182.893 527.616C182.281 528.336 181.453 528.696 180.409 528.696C179.509 528.696 178.735 528.426 178.087 527.886C177.475 527.346 177.169 526.608 177.169 525.672C177.169 524.88 177.367 524.214 177.763 523.674C178.195 523.098 178.681 522.648 179.221 522.324C178.861 522.036 178.429 521.91 177.925 521.946C176.953 521.982 176.053 522.306 175.225 522.918C174.397 523.494 173.695 524.25 173.119 525.186C172.543 526.086 172.093 527.058 171.769 528.102C171.445 529.146 171.283 530.118 171.283 531.018V543.438C171.283 545.202 171.769 546.39 172.741 547.002C173.713 547.578 175.063 547.866 176.791 547.866V549C175.963 548.964 174.775 548.928 173.227 548.892C171.715 548.82 170.113 548.784 168.421 548.784C167.125 548.784 165.829 548.82 164.533 548.892C163.237 548.928 162.247 548.964 161.563 549V547.866C162.967 547.866 163.957 547.596 164.533 547.056C165.145 546.516 165.451 545.49 165.451 543.978V527.022C165.451 525.402 165.181 524.214 164.641 523.458C164.101 522.666 163.075 522.27 161.563 522.27V521.136C162.715 521.244 163.831 521.298 164.911 521.298C166.135 521.298 167.269 521.244 168.313 521.136C169.393 520.992 170.383 520.794 171.283 520.542V526.752C171.715 525.708 172.291 524.7 173.011 523.728C173.731 522.756 174.595 521.964 175.603 521.352C176.611 520.704 177.727 520.38 178.951 520.38ZM190.299 507.528C191.415 507.528 192.351 507.888 193.107 508.608C193.863 509.292 194.241 510.156 194.241 511.2C194.241 512.244 193.863 513.126 193.107 513.846C192.351 514.53 191.415 514.872 190.299 514.872C189.183 514.872 188.247 514.53 187.491 513.846C186.735 513.126 186.357 512.244 186.357 511.2C186.357 510.156 186.735 509.292 187.491 508.608C188.247 507.888 189.183 507.528 190.299 507.528ZM193.539 520.542V543.978C193.539 545.49 193.827 546.516 194.403 547.056C195.015 547.596 196.023 547.866 197.427 547.866V549C196.815 548.964 195.861 548.928 194.565 548.892C193.305 548.82 192.009 548.784 190.677 548.784C189.417 548.784 188.121 548.82 186.789 548.892C185.457 548.928 184.467 548.964 183.819 549V547.866C185.223 547.866 186.213 547.596 186.789 547.056C187.401 546.516 187.707 545.49 187.707 543.978V527.022C187.707 525.402 187.437 524.214 186.897 523.458C186.357 522.666 185.331 522.27 183.819 522.27V521.136C184.971 521.244 186.087 521.298 187.167 521.298C188.391 521.298 189.525 521.244 190.569 521.136C191.649 520.992 192.639 520.794 193.539 520.542ZM216.64 520.38C218.08 520.38 219.25 520.578 220.15 520.974C221.086 521.334 221.86 521.838 222.472 522.486C223.12 523.17 223.57 524.052 223.822 525.132C224.11 526.212 224.254 527.67 224.254 529.506V543.978C224.254 545.49 224.542 546.516 225.118 547.056C225.73 547.596 226.738 547.866 228.142 547.866V549C227.53 548.964 226.576 548.928 225.28 548.892C223.984 548.82 222.706 548.784 221.446 548.784C220.222 548.784 218.998 548.82 217.774 548.892C216.586 548.928 215.686 548.964 215.074 549V547.866C216.298 547.866 217.162 547.596 217.666 547.056C218.17 546.516 218.422 545.49 218.422 543.978V527.994C218.422 526.95 218.332 526.014 218.152 525.186C217.972 524.322 217.594 523.638 217.018 523.134C216.442 522.594 215.578 522.324 214.426 522.324C213.094 522.324 211.906 522.702 210.862 523.458C209.854 524.214 209.044 525.258 208.432 526.59C207.856 527.886 207.568 529.344 207.568 530.964V543.978C207.568 545.49 207.82 546.516 208.324 547.056C208.864 547.596 209.728 547.866 210.916 547.866V549C210.34 548.964 209.458 548.928 208.27 548.892C207.118 548.82 205.912 548.784 204.652 548.784C203.428 548.784 202.15 548.82 200.818 548.892C199.486 548.928 198.496 548.964 197.848 549V547.866C199.252 547.866 200.242 547.596 200.818 547.056C201.43 546.516 201.736 545.49 201.736 543.978V527.022C201.736 525.402 201.466 524.214 200.926 523.458C200.386 522.666 199.36 522.27 197.848 522.27V521.136C199 521.244 200.116 521.298 201.196 521.298C202.42 521.298 203.554 521.244 204.598 521.136C205.678 520.992 206.668 520.794 207.568 520.542V526.428C208.504 524.196 209.782 522.63 211.402 521.73C213.058 520.83 214.804 520.38 216.64 520.38ZM235.839 549.378C234.327 549.378 233.031 549.09 231.951 548.514C230.871 547.938 230.061 547.146 229.521 546.138C228.981 545.13 228.711 543.978 228.711 542.682C228.711 541.098 229.071 539.82 229.791 538.848C230.511 537.84 231.429 537.03 232.545 536.418C233.697 535.806 234.903 535.302 236.163 534.906C237.459 534.474 238.665 534.078 239.781 533.718C240.933 533.322 241.869 532.872 242.589 532.368C243.345 531.864 243.723 531.198 243.723 530.37V526.698C243.723 525.402 243.507 524.376 243.075 523.62C242.679 522.828 242.121 522.27 241.401 521.946C240.717 521.622 239.889 521.46 238.917 521.46C238.089 521.46 237.207 521.586 236.271 521.838C235.335 522.054 234.597 522.504 234.057 523.188C234.849 523.404 235.497 523.836 236.001 524.484C236.541 525.096 236.811 525.87 236.811 526.806C236.811 527.814 236.469 528.606 235.785 529.182C235.137 529.758 234.309 530.046 233.301 530.046C232.185 530.046 231.357 529.704 230.817 529.02C230.277 528.3 230.007 527.472 230.007 526.536C230.007 525.564 230.241 524.772 230.709 524.16C231.213 523.548 231.861 522.972 232.653 522.432C233.517 521.856 234.615 521.37 235.947 520.974C237.315 520.578 238.827 520.38 240.483 520.38C242.031 520.38 243.363 520.56 244.479 520.92C245.631 521.244 246.585 521.784 247.341 522.54C248.241 523.368 248.835 524.412 249.123 525.672C249.411 526.896 249.555 528.39 249.555 530.154V545.058C249.555 545.958 249.663 546.606 249.879 547.002C250.131 547.362 250.527 547.542 251.067 547.542C251.427 547.542 251.769 547.452 252.093 547.272C252.453 547.092 252.867 546.822 253.335 546.462L253.875 547.38C253.119 547.992 252.345 548.478 251.553 548.838C250.797 549.198 249.825 549.378 248.637 549.378C247.485 549.378 246.549 549.198 245.829 548.838C245.109 548.478 244.569 547.956 244.209 547.272C243.885 546.588 243.723 545.742 243.723 544.734C242.787 546.246 241.671 547.398 240.375 548.19C239.079 548.982 237.567 549.378 235.839 549.378ZM238.431 546.786C239.439 546.786 240.375 546.498 241.239 545.922C242.139 545.346 242.967 544.482 243.723 543.33V532.584C243.327 533.16 242.751 533.664 241.995 534.096C241.239 534.492 240.429 534.906 239.565 535.338C238.701 535.77 237.873 536.274 237.081 536.85C236.325 537.39 235.695 538.092 235.191 538.956C234.687 539.82 234.435 540.918 234.435 542.25C234.435 543.654 234.795 544.77 235.515 545.598C236.235 546.39 237.207 546.786 238.431 546.786ZM270.717 520.38C271.761 520.38 272.643 520.596 273.363 521.028C274.119 521.46 274.677 522.018 275.037 522.702C275.433 523.35 275.631 524.088 275.631 524.916C275.631 525.96 275.307 526.86 274.659 527.616C274.047 528.336 273.219 528.696 272.175 528.696C271.275 528.696 270.501 528.426 269.853 527.886C269.241 527.346 268.935 526.608 268.935 525.672C268.935 524.88 269.133 524.214 269.529 523.674C269.961 523.098 270.447 522.648 270.987 522.324C270.627 522.036 270.195 521.91 269.691 521.946C268.719 521.982 267.819 522.306 266.991 522.918C266.163 523.494 265.461 524.25 264.885 525.186C264.309 526.086 263.859 527.058 263.535 528.102C263.211 529.146 263.049 530.118 263.049 531.018V543.438C263.049 545.202 263.535 546.39 264.507 547.002C265.479 547.578 266.829 547.866 268.557 547.866V549C267.729 548.964 266.541 548.928 264.993 548.892C263.481 548.82 261.879 548.784 260.187 548.784C258.891 548.784 257.595 548.82 256.299 548.892C255.003 548.928 254.013 548.964 253.329 549V547.866C254.733 547.866 255.723 547.596 256.299 547.056C256.911 546.516 257.217 545.49 257.217 543.978V527.022C257.217 525.402 256.947 524.214 256.407 523.458C255.867 522.666 254.841 522.27 253.329 522.27V521.136C254.481 521.244 255.597 521.298 256.677 521.298C257.901 521.298 259.035 521.244 260.079 521.136C261.159 520.992 262.149 520.794 263.049 520.542V526.752C263.481 525.708 264.057 524.7 264.777 523.728C265.497 522.756 266.361 521.964 267.369 521.352C268.377 520.704 269.493 520.38 270.717 520.38ZM301.127 521.136V522.216C300.443 522.324 299.813 522.684 299.237 523.296C298.661 523.872 298.103 524.88 297.563 526.32L289.139 548.892L287.843 550.188L277.313 525.294C276.629 523.89 275.963 523.044 275.315 522.756C274.703 522.432 274.181 522.27 273.749 522.27V521.136C274.649 521.244 275.603 521.334 276.611 521.406C277.619 521.442 278.663 521.46 279.743 521.46C280.967 521.46 282.191 521.424 283.415 521.352C284.675 521.28 285.845 521.208 286.925 521.136V522.27C286.061 522.27 285.287 522.342 284.603 522.486C283.955 522.594 283.523 522.936 283.307 523.512C283.127 524.052 283.307 524.988 283.847 526.32L290.543 542.79L290.165 542.952L295.619 528.48C296.159 527.04 296.375 525.888 296.267 525.024C296.159 524.124 295.781 523.458 295.133 523.026C294.485 522.558 293.531 522.288 292.271 522.216V521.136C292.883 521.172 293.441 521.208 293.945 521.244C294.485 521.244 295.007 521.262 295.511 521.298C296.015 521.298 296.519 521.298 297.023 521.298C297.815 521.298 298.553 521.28 299.237 521.244C299.957 521.208 300.587 521.172 301.127 521.136ZM289.139 548.892L287.195 553.968C286.835 554.868 286.457 555.624 286.061 556.236C285.701 556.848 285.305 557.352 284.873 557.748C284.333 558.252 283.667 558.612 282.875 558.828C282.083 559.044 281.291 559.152 280.499 559.152C279.743 559.152 279.023 559.008 278.339 558.72C277.691 558.468 277.151 558.072 276.719 557.532C276.287 556.992 276.071 556.326 276.071 555.534C276.071 554.598 276.377 553.842 276.989 553.266C277.601 552.69 278.411 552.402 279.419 552.402C280.319 552.402 281.075 552.636 281.687 553.104C282.299 553.608 282.605 554.328 282.605 555.264C282.605 555.912 282.425 556.47 282.065 556.938C281.741 557.406 281.309 557.766 280.769 558.018C280.877 558.054 280.985 558.072 281.093 558.072C281.201 558.072 281.291 558.072 281.363 558.072C282.371 558.072 283.271 557.73 284.063 557.046C284.855 556.398 285.521 555.336 286.061 553.86L288.005 548.676L289.139 548.892ZM324.163 520.38C325.387 520.38 326.557 520.542 327.673 520.866C328.789 521.154 329.761 521.568 330.589 522.108C331.453 522.648 332.101 523.296 332.533 524.052C333.001 524.808 333.235 525.636 333.235 526.536C333.235 527.616 332.929 528.462 332.317 529.074C331.705 529.686 330.913 529.992 329.941 529.992C328.969 529.992 328.159 529.722 327.511 529.182C326.863 528.642 326.539 527.868 326.539 526.86C326.539 525.924 326.809 525.168 327.349 524.592C327.889 523.98 328.519 523.584 329.239 523.404C328.915 522.864 328.339 522.414 327.511 522.054C326.719 521.658 325.855 521.46 324.919 521.46C323.947 521.46 323.011 521.712 322.111 522.216C321.247 522.72 320.473 523.494 319.789 524.538C319.105 525.582 318.547 526.932 318.115 528.588C317.719 530.244 317.521 532.242 317.521 534.582C317.521 537.606 317.863 540.018 318.547 541.818C319.267 543.582 320.203 544.842 321.355 545.598C322.507 546.354 323.749 546.732 325.081 546.732C325.945 546.732 326.827 546.57 327.727 546.246C328.663 545.922 329.545 545.382 330.373 544.626C331.237 543.87 331.993 542.844 332.641 541.548L333.667 541.926C333.271 543.114 332.641 544.32 331.777 545.544C330.949 546.768 329.851 547.776 328.483 548.568C327.115 549.36 325.441 549.756 323.461 549.756C321.193 549.756 319.141 549.198 317.305 548.082C315.469 546.966 314.011 545.346 312.931 543.222C311.851 541.062 311.311 538.434 311.311 535.338C311.311 532.314 311.851 529.686 312.931 527.454C314.047 525.186 315.577 523.44 317.521 522.216C319.465 520.992 321.679 520.38 324.163 520.38ZM344.103 506.664V543.978C344.103 545.49 344.391 546.516 344.967 547.056C345.579 547.596 346.587 547.866 347.991 547.866V549C347.379 548.964 346.425 548.928 345.129 548.892C343.833 548.82 342.537 548.784 341.241 548.784C339.945 548.784 338.631 548.82 337.299 548.892C336.003 548.928 335.031 548.964 334.383 549V547.866C335.787 547.866 336.777 547.596 337.353 547.056C337.965 546.516 338.271 545.49 338.271 543.978V513.144C338.271 511.524 338.001 510.336 337.461 509.58C336.921 508.788 335.895 508.392 334.383 508.392V507.258C335.535 507.366 336.651 507.42 337.731 507.42C338.919 507.42 340.053 507.366 341.133 507.258C342.213 507.114 343.203 506.916 344.103 506.664ZM354.9 507.528C356.016 507.528 356.952 507.888 357.708 508.608C358.464 509.292 358.842 510.156 358.842 511.2C358.842 512.244 358.464 513.126 357.708 513.846C356.952 514.53 356.016 514.872 354.9 514.872C353.784 514.872 352.848 514.53 352.092 513.846C351.336 513.126 350.958 512.244 350.958 511.2C350.958 510.156 351.336 509.292 352.092 508.608C352.848 507.888 353.784 507.528 354.9 507.528ZM358.14 520.542V543.978C358.14 545.49 358.428 546.516 359.004 547.056C359.616 547.596 360.624 547.866 362.028 547.866V549C361.416 548.964 360.462 548.928 359.166 548.892C357.906 548.82 356.61 548.784 355.278 548.784C354.018 548.784 352.722 548.82 351.39 548.892C350.058 548.928 349.068 548.964 348.42 549V547.866C349.824 547.866 350.814 547.596 351.39 547.056C352.002 546.516 352.308 545.49 352.308 543.978V527.022C352.308 525.402 352.038 524.214 351.498 523.458C350.958 522.666 349.932 522.27 348.42 522.27V521.136C349.572 521.244 350.688 521.298 351.768 521.298C352.992 521.298 354.126 521.244 355.17 521.136C356.25 520.992 357.24 520.794 358.14 520.542ZM381.241 520.38C382.681 520.38 383.851 520.578 384.751 520.974C385.687 521.334 386.461 521.838 387.073 522.486C387.721 523.17 388.171 524.052 388.423 525.132C388.711 526.212 388.855 527.67 388.855 529.506V543.978C388.855 545.49 389.143 546.516 389.719 547.056C390.331 547.596 391.339 547.866 392.743 547.866V549C392.131 548.964 391.177 548.928 389.881 548.892C388.585 548.82 387.307 548.784 386.047 548.784C384.823 548.784 383.599 548.82 382.375 548.892C381.187 548.928 380.287 548.964 379.675 549V547.866C380.899 547.866 381.763 547.596 382.267 547.056C382.771 546.516 383.023 545.49 383.023 543.978V527.994C383.023 526.95 382.933 526.014 382.753 525.186C382.573 524.322 382.195 523.638 381.619 523.134C381.043 522.594 380.179 522.324 379.027 522.324C377.695 522.324 376.507 522.702 375.463 523.458C374.455 524.214 373.645 525.258 373.033 526.59C372.457 527.886 372.169 529.344 372.169 530.964V543.978C372.169 545.49 372.421 546.516 372.925 547.056C373.465 547.596 374.329 547.866 375.517 547.866V549C374.941 548.964 374.059 548.928 372.871 548.892C371.719 548.82 370.513 548.784 369.253 548.784C368.029 548.784 366.751 548.82 365.419 548.892C364.087 548.928 363.097 548.964 362.449 549V547.866C363.853 547.866 364.843 547.596 365.419 547.056C366.031 546.516 366.337 545.49 366.337 543.978V527.022C366.337 525.402 366.067 524.214 365.527 523.458C364.987 522.666 363.961 522.27 362.449 522.27V521.136C363.601 521.244 364.717 521.298 365.797 521.298C367.021 521.298 368.155 521.244 369.199 521.136C370.279 520.992 371.269 520.794 372.169 520.542V526.428C373.105 524.196 374.383 522.63 376.003 521.73C377.659 520.83 379.405 520.38 381.241 520.38ZM399.306 507.528C400.422 507.528 401.358 507.888 402.114 508.608C402.87 509.292 403.248 510.156 403.248 511.2C403.248 512.244 402.87 513.126 402.114 513.846C401.358 514.53 400.422 514.872 399.306 514.872C398.19 514.872 397.254 514.53 396.498 513.846C395.742 513.126 395.364 512.244 395.364 511.2C395.364 510.156 395.742 509.292 396.498 508.608C397.254 507.888 398.19 507.528 399.306 507.528ZM402.546 520.542V543.978C402.546 545.49 402.834 546.516 403.41 547.056C404.022 547.596 405.03 547.866 406.434 547.866V549C405.822 548.964 404.868 548.928 403.572 548.892C402.312 548.82 401.016 548.784 399.684 548.784C398.424 548.784 397.128 548.82 395.796 548.892C394.464 548.928 393.474 548.964 392.826 549V547.866C394.23 547.866 395.22 547.596 395.796 547.056C396.408 546.516 396.714 545.49 396.714 543.978V527.022C396.714 525.402 396.444 524.214 395.904 523.458C395.364 522.666 394.338 522.27 392.826 522.27V521.136C393.978 521.244 395.094 521.298 396.174 521.298C397.398 521.298 398.532 521.244 399.576 521.136C400.656 520.992 401.646 520.794 402.546 520.542ZM420.572 520.38C421.796 520.38 422.966 520.542 424.082 520.866C425.198 521.154 426.17 521.568 426.998 522.108C427.862 522.648 428.51 523.296 428.942 524.052C429.41 524.808 429.644 525.636 429.644 526.536C429.644 527.616 429.338 528.462 428.726 529.074C428.114 529.686 427.322 529.992 426.35 529.992C425.378 529.992 424.568 529.722 423.92 529.182C423.272 528.642 422.948 527.868 422.948 526.86C422.948 525.924 423.218 525.168 423.758 524.592C424.298 523.98 424.928 523.584 425.648 523.404C425.324 522.864 424.748 522.414 423.92 522.054C423.128 521.658 422.264 521.46 421.328 521.46C420.356 521.46 419.42 521.712 418.52 522.216C417.656 522.72 416.882 523.494 416.198 524.538C415.514 525.582 414.956 526.932 414.524 528.588C414.128 530.244 413.93 532.242 413.93 534.582C413.93 537.606 414.272 540.018 414.956 541.818C415.676 543.582 416.612 544.842 417.764 545.598C418.916 546.354 420.158 546.732 421.49 546.732C422.354 546.732 423.236 546.57 424.136 546.246C425.072 545.922 425.954 545.382 426.782 544.626C427.646 543.87 428.402 542.844 429.05 541.548L430.076 541.926C429.68 543.114 429.05 544.32 428.186 545.544C427.358 546.768 426.26 547.776 424.892 548.568C423.524 549.36 421.85 549.756 419.87 549.756C417.602 549.756 415.55 549.198 413.714 548.082C411.878 546.966 410.42 545.346 409.34 543.222C408.26 541.062 407.72 538.434 407.72 535.338C407.72 532.314 408.26 529.686 409.34 527.454C410.456 525.186 411.986 523.44 413.93 522.216C415.874 520.992 418.088 520.38 420.572 520.38Z" fill="#F9F9F9"/>
</svg>
